<?xml version="1.0" encoding="utf-8"?>
<!-- Generator: Adobe Illustrator 19.1.0, SVG Export Plug-In . SVG Version: 6.00 Build 0)  -->
<svg version="1.1"
	 id="svg2" inkscape:label="Pozadí" xmlns:sodipodi="http://sodipodi.sourceforge.net/DTD/sodipodi-0.dtd" xmlns:svg="http://www.w3.org/2000/svg" xmlns:rdf="http://www.w3.org/1999/02/22-rdf-syntax-ns#" xmlns:cc="http://creativecommons.org/ns#" xmlns:dc="http://purl.org/dc/elements/1.1/" xmlns:inkscape="http://www.inkscape.org/namespaces/inkscape" inkscape:export-ydpi="90" sodipodi:docname="icon.svg" inkscape:version="0.48.4 r9939" inkscape:export-xdpi="90" inkscape:export-filename="/home/mudrd8mz/public_html/moodle24/mod/subcourse/pix/icon.png"
	 xmlns="http://www.w3.org/2000/svg" xmlns:xlink="http://www.w3.org/1999/xlink" x="0px" y="0px" viewBox="-142 144 24 24"
	 style="enable-background:new -142 144 24 24;" xml:space="preserve">
<style type="text/css">
	.st0{fill:url(#use4129-3_1_);}
	.st1{fill:#FFFFFF;}
	.st2{fill:url(#path4666_1_);}
	.st3{fill:#FFFFFF;stroke:#FFFFFF;stroke-width:1.6306;}
	.st4{fill:url(#path4736_1_);}
</style>
<sodipodi:namedview  id="base" inkscape:cy="12.877506" showgrid="false" inkscape:cx="10.466177" pagecolor="#ffffff" bordercolor="#666666" inkscape:zoom="32" borderopacity="1.0" inkscape:window-maximized="1" inkscape:window-y="25" inkscape:window-x="0" inkscape:window-height="1004" inkscape:window-width="1680" inkscape:pageshadow="2" inkscape:pageopacity="0.0" inkscape:document-units="px" inkscape:current-layer="layer1">
	</sodipodi:namedview>
<g id="layer1" transform="translate(0,-1028.3622)" inkscape:label="Vrstva 1" inkscape:groupmode="layer">
	
		<linearGradient id="use4129-3_1_" gradientUnits="userSpaceOnUse" x1="-232.9375" y1="1294.6707" x2="-226.3125" y2="1294.6707" gradientTransform="matrix(3.2 0 0 -3.2 601.8 5324.2925)">
		<stop  offset="0" style="stop-color:#9D9D9D"/>
		<stop  offset="1" style="stop-color:#8C8C8C"/>
	</linearGradient>
	<path id="use4129-3" class="st0" d="M-133,1172.4c-5,0-9,4-9,9c0,4.7,3.6,8.6,8.2,9c-0.2-0.6-0.2-1.3-0.2-2c0-4.4,3.6-8,8-8
		c0.7,0,1.3,0.1,2,0.2C-124.4,1176-128.3,1172.4-133,1172.4z"/>
	<path id="use4129" class="st1" d="M-133,1174.4c-3.9,0-7,3.1-7,7c0,3.5,2.6,6.4,6,6.9c0.1-4.3,3.6-7.9,7.9-7.9
		C-126.6,1177-129.5,1174.4-133,1174.4z"/>
	
		<linearGradient id="path4666_1_" gradientUnits="userSpaceOnUse" x1="-164.158" y1="1212.4585" x2="-153.4188" y2="1212.4585" gradientTransform="matrix(1.3036 0 0 -1.2722 82.0025 2731.8813)">
		<stop  offset="0" style="stop-color:#A1A1A1"/>
		<stop  offset="1" style="stop-color:#868686"/>
	</linearGradient>
	
		<path id="path4666" sodipodi:ry="5.5021749" sodipodi:cx="16.285553" sodipodi:cy="16.288116" sodipodi:type="arc" sodipodi:rx="5.3695922" class="st2" d="
		M-118,1189.4c0,3.9-3.1,7-7,7c-3.9,0-7-3.1-7-7s3.1-7,7-7C-121.1,1182.4-118,1185.5-118,1189.4z"/>
	
		<path id="path4676" sodipodi:ry="5.5021749" sodipodi:cx="16.285553" sodipodi:cy="16.288116" sodipodi:type="arc" sodipodi:rx="5.3695922" class="st3" d="
		M-120,1189.4c0,2.8-2.2,5-5,5c-2.8,0-5-2.2-5-5c0-2.8,2.2-5,5-5C-122.3,1184.4-120,1186.6-120,1189.4z"/>
	
		<linearGradient id="path4736_1_" gradientUnits="userSpaceOnUse" x1="-190.8156" y1="1252.8013" x2="-184.6675" y2="1252.8013" gradientTransform="matrix(1.6462 0 0 -1.6462 176.063 3243.7117)">
		<stop  offset="0" style="stop-color:#B9B9B9"/>
		<stop  offset="1" style="stop-color:#A0A0A0"/>
	</linearGradient>
	<path id="path4736" class="st4" d="M-133,1176.7c-2.6,0-4.6,2.1-4.6,4.6c0,2.4,1.8,4.3,4,4.6c0.8-2.5,2.7-4.4,5.2-5.2
		C-128.7,1178.5-130.6,1176.7-133,1176.7z"/>
</g>
</svg>
