<?xml version="1.0" encoding="utf-8"?>
<!-- Generator: Adobe Illustrator 19.1.0, SVG Export Plug-In . SVG Version: 6.00 Build 0)  -->
<svg version="1.1"
	 id="svg2" inkscape:label="Pozadí" xmlns:sodipodi="http://sodipodi.sourceforge.net/DTD/sodipodi-0.dtd" xmlns:svg="http://www.w3.org/2000/svg" xmlns:rdf="http://www.w3.org/1999/02/22-rdf-syntax-ns#" xmlns:cc="http://creativecommons.org/ns#" xmlns:dc="http://purl.org/dc/elements/1.1/" xmlns:inkscape="http://www.inkscape.org/namespaces/inkscape" inkscape:export-ydpi="90" sodipodi:docname="icon.svg" inkscape:version="0.48.4 r9939" inkscape:export-xdpi="90" inkscape:export-filename="/home/mudrd8mz/public_html/moodle24/mod/subcourse/pix/icon.png"
	 xmlns="http://www.w3.org/2000/svg" xmlns:xlink="http://www.w3.org/1999/xlink" x="0px" y="0px" viewBox="67.1 144 24 24"
	 style="enable-background:new 67.1 144 24 24;" xml:space="preserve">
<style type="text/css">
	.st0{fill:#FFFFFF;}
	.st1{fill:#999999;}
	.st2{fill:url(#SVGID_1_);}
	.st3{fill:url(#SVGID_2_);}
	.st4{fill:url(#SVGID_3_);}
	.st5{fill:url(#SVGID_4_);}
	.st6{fill:url(#SVGID_5_);}
	.st7{fill:url(#SVGID_6_);}
	.st8{fill:url(#SVGID_7_);}
	.st9{fill:url(#SVGID_8_);}
	.st10{fill:url(#SVGID_9_);}
	.st11{fill:url(#SVGID_10_);}
	.st12{fill:url(#SVGID_11_);}
	.st13{fill:url(#SVGID_12_);}
	.st14{fill:url(#SVGID_13_);}
	.st15{fill:url(#SVGID_14_);}
	.st16{fill:url(#SVGID_15_);}
	.st17{fill:url(#SVGID_16_);}
	.st18{fill:url(#SVGID_17_);}
	.st19{fill:url(#SVGID_18_);}
	.st20{fill:url(#SVGID_19_);}
	.st21{fill:url(#SVGID_20_);}
</style>
<g>
	<path class="st0" d="M79.1,167c-6.1,0-11-4.9-11-11s4.9-11,11-11s11,4.9,11,11S85.2,167,79.1,167z"/>
	<path class="st1" d="M79.1,146c5.5,0,10,4.5,10,10s-4.5,10-10,10s-10-4.5-10-10S73.6,146,79.1,146 M79.1,144c-6.6,0-12,5.4-12,12
		s5.4,12,12,12s12-5.4,12-12S85.8,144,79.1,144L79.1,144z"/>
</g>
<g>
	<g>
		<g>
			<g>
				<path class="st0" d="M79.1,156h7.9c0,4.4-3.6,7.9-7.9,7.9s-7.9-3.6-7.9-7.9c0-4.4,3.6-7.9,7.9-7.9l0,0V156z"/>
			</g>
		</g>
		<g>
			<g>
				<linearGradient id="SVGID_1_" gradientUnits="userSpaceOnUse" x1="79.125" y1="152.0354" x2="87.0542" y2="152.0354">
					<stop  offset="0" style="stop-color:#B9B9B9"/>
					<stop  offset="1" style="stop-color:#A0A0A0"/>
				</linearGradient>
				<path class="st2" d="M79.1,156v-7.9c4.4,0,7.9,3.6,7.9,7.9l0,0H79.1z"/>
			</g>
		</g>
	</g>
	<g>
		<g>
		</g>
		<g>
		</g>
	</g>
</g>
</svg>
