<?xml version="1.0" encoding="utf-8"?>
<!-- Generator: Adobe Illustrator 19.1.0, SVG Export Plug-In . SVG Version: 6.00 Build 0)  -->
<svg version="1.1"
	 id="svg2" xmlns:svg="http://www.w3.org/2000/svg" xmlns:rdf="http://www.w3.org/1999/02/22-rdf-syntax-ns#" xmlns:cc="http://creativecommons.org/ns#" xmlns:dc="http://purl.org/dc/elements/1.1/"
	 xmlns="http://www.w3.org/2000/svg" xmlns:xlink="http://www.w3.org/1999/xlink" x="0px" y="0px" viewBox="727.1 144 24 24"
	 style="enable-background:new 727.1 144 24 24;" xml:space="preserve">
	 <style type="text/css">
	 	.st0{fill:#FFFFFF;}
	 	.st1{fill:#999999;}
	 	.st2{fill:url(#SVGID_1_);}
	 	.st3{fill:none;}
	 	.st4{enable-background:new    ;}
	 </style>
	 <g>
	 	<path class="st0" d="M739.1,167c-6.1,0-11-4.9-11-11s4.9-11,11-11s11,4.9,11,11S745.2,167,739.1,167z"/>
	 	<path class="st1" d="M739.1,146c5.5,0,10,4.5,10,10s-4.5,10-10,10s-10-4.5-10-10S733.6,146,739.1,146 M739.1,144
	 		c-6.6,0-12,5.4-12,12s5.4,12,12,12s12-5.4,12-12S745.8,144,739.1,144L739.1,144z"/>
	 </g>
	 <g>
	 	<g>
	 		<g>
	 			<g>

	 					<linearGradient id="SVGID_1_" gradientUnits="userSpaceOnUse" x1="731.2" y1="-130" x2="747.0582" y2="-130" gradientTransform="matrix(1 0 0 -1 0 26)">
	 					<stop  offset="0" style="stop-color:#53B953"/>
	 					<stop  offset="1" style="stop-color:#48A048"/>
	 				</linearGradient>
	 				<path class="st2" d="M739.1,156v-7.9c4.4,0,7.9,3.6,7.9,7.9c0,4.4-3.5,7.9-7.9,7.9s-7.9-3.6-7.9-7.9c0-4.4,3.6-7.9,7.9-7.9l0,0
	 					V156z"/>
	 			</g>
	 		</g>
	 	</g>
	 </g>
	 <rect x="733.1" y="149.3" class="st3" width="15.2" height="14.7"/>
	 <g class="st4">
	 	<path class="st0" d="M734,156.4c0-0.2,0.1-0.4,0.2-0.5l1-1c0.1-0.1,0.3-0.2,0.5-0.2s0.4,0.1,0.5,0.2l2.1,2.1l4.8-4.8
	 		c0.1-0.1,0.3-0.2,0.5-0.2s0.4,0.1,0.5,0.2l1,1c0.1,0.1,0.2,0.3,0.2,0.5s-0.1,0.4-0.2,0.5l-5.3,5.3l-1,1c-0.1,0.1-0.3,0.2-0.5,0.2
	 		s-0.4-0.1-0.5-0.2l-1-1l-2.6-2.6C734.1,156.7,734,156.6,734,156.4z"/>
	 </g>
</svg>
